<svg width="146" height="110" viewBox="0 0 146 110" fill="none" xmlns="http://www.w3.org/2000/svg">
<path fill-rule="evenodd" clip-rule="evenodd" d="M4 0C1.79086 0 0 1.79086 0 4V93C0 95.2091 1.79086 97 4 97H109.213C109.073 96.0202 109 95.0186 109 94C109 82.402 118.402 73 130 73C131.019 73 132.02 73.0725 133 73.2127V4C133 1.79086 131.209 0 129 0H4ZM133 78.2808C132.028 78.0965 131.025 78 130 78C121.163 78 114 85.1634 114 94C114 95.0254 114.096 96.0282 114.281 97H129C131.209 97 133 95.2091 133 93V78.2808Z" fill="#112A3E"/>
<rect x="8" y="8" width="8" height="8" fill="#091620"/>
<rect x="30" y="8" width="8" height="8" fill="#091620"/>
<rect x="52" y="8" width="8" height="8" fill="#091620"/>
<rect x="74" y="8" width="8" height="8" fill="#091620"/>
<rect x="96" y="8" width="8" height="8" fill="#091620"/>
<rect x="118" y="8" width="8" height="8" fill="#091620"/>
<rect x="8" y="81" width="8" height="8" fill="#091620"/>
<rect x="30" y="81" width="8" height="8" fill="#091620"/>
<rect x="52" y="81" width="8" height="8" fill="#091620"/>
<rect x="74" y="81" width="8" height="8" fill="#091620"/>
<rect x="96" y="81" width="8" height="8" fill="#091620"/>
<rect x="118" y="81" width="8" height="8" fill="#091620"/>
<path d="M87 49L57 66.3205L57 31.6795L87 49Z" fill="#CED0D2"/>
<path d="M146 94C146 102.837 138.837 110 130 110C121.163 110 114 102.837 114 94C114 85.1634 121.163 78 130 78C138.837 78 146 85.1634 146 94Z" fill="#112A3E"/>
<path fill-rule="evenodd" clip-rule="evenodd" d="M130 86C130.552 86 131 86.4477 131 87V101C131 101.552 130.552 102 130 102C129.448 102 129 101.552 129 101V87C129 86.4477 129.448 86 130 86Z" fill="#CED0D2"/>
<path fill-rule="evenodd" clip-rule="evenodd" d="M129.293 86.2929C129.683 85.9024 130.317 85.9024 130.707 86.2929L137.707 93.2929C138.098 93.6834 138.098 94.3166 137.707 94.7071C137.317 95.0976 136.683 95.0976 136.293 94.7071L130 88.4142L123.707 94.7071C123.317 95.0976 122.683 95.0976 122.293 94.7071C121.902 94.3166 121.902 93.6834 122.293 93.2929L129.293 86.2929Z" fill="#CED0D2"/>
</svg>
