<svg width="12" height="12" viewBox="0 0 12 12" fill="none" xmlns="http://www.w3.org/2000/svg">
<path fill-rule="evenodd" clip-rule="evenodd" d="M9.37186 9.37186C9.45391 9.28981 9.5 9.17853 9.5 9.0625L9.5 7.3125C9.5 7.07088 9.69588 6.875 9.9375 6.875C10.1791 6.875 10.375 7.07088 10.375 7.3125L10.375 9.0625C10.375 9.4106 10.2367 9.74444 9.99058 9.99058C9.74444 10.2367 9.4106 10.375 9.0625 10.375L2.9375 10.375C2.5894 10.375 2.25556 10.2367 2.00942 9.99058C1.76328 9.74444 1.625 9.4106 1.625 9.0625L1.625 7.3125C1.625 7.07088 1.82088 6.875 2.0625 6.875C2.30412 6.875 2.5 7.07088 2.5 7.3125L2.5 9.0625C2.5 9.17853 2.54609 9.28981 2.62814 9.37186C2.71019 9.45391 2.82147 9.5 2.9375 9.5L9.0625 9.5C9.17853 9.5 9.28981 9.45391 9.37186 9.37186ZM8.49687 3.94064C8.66773 4.1115 8.66773 4.38851 8.49687 4.55936C8.32602 4.73021 8.04901 4.73021 7.87816 4.55936L6.43752 3.11872L6.43752 7.3125C6.43752 7.55412 6.24164 7.75 6.00002 7.75C5.75839 7.75 5.56252 7.55412 5.56252 7.3125L5.56252 3.11872L4.12187 4.55936C3.95102 4.73021 3.67401 4.73021 3.50316 4.55936C3.3323 4.38851 3.3323 4.1115 3.50316 3.94064L5.69066 1.75314C5.86151 1.58229 6.13852 1.58229 6.30937 1.75314L8.49687 3.94064Z" fill="white" fill-opacity="0.8"/>
</svg>
