<svg width="16" height="16" viewBox="0 0 16 16" fill="none" xmlns="http://www.w3.org/2000/svg">
<path fill-rule="evenodd" clip-rule="evenodd" d="M13.3333 3.3335C13.3333 3.15668 13.2631 2.98712 13.1381 2.86209C13.0131 2.73707 12.8435 2.66683 12.6667 2.66683L3.33334 2.66683C3.15653 2.66683 2.98696 2.73707 2.86193 2.86209C2.73691 2.98712 2.66667 3.15668 2.66667 3.3335L2.66667 6.00016C2.66667 6.36835 2.36819 6.66683 2 6.66683C1.63181 6.66683 1.33334 6.36835 1.33334 6.00016L1.33334 3.3335C1.33334 2.80306 1.54405 2.29435 1.91912 1.91928C2.2942 1.54421 2.8029 1.3335 3.33334 1.3335L12.6667 1.3335C13.1971 1.3335 13.7058 1.54421 14.0809 1.91928C14.456 2.29436 14.6667 2.80306 14.6667 3.3335L14.6667 6.00016C14.6667 6.36835 14.3682 6.66683 14 6.66683C13.6318 6.66683 13.3333 6.36835 13.3333 6.00016L13.3333 3.3335Z" fill="#0D1F2D"/>
<path fill-rule="evenodd" clip-rule="evenodd" d="M11.8047 10.1954C12.0651 10.4558 12.0651 10.8779 11.8047 11.1382L8.4714 14.4716C8.21105 14.7319 7.78894 14.7319 7.5286 14.4716L4.19526 11.1382C3.93491 10.8779 3.93491 10.4558 4.19526 10.1954C4.45561 9.93508 4.87772 9.93508 5.13807 10.1954L7.33333 12.3907L7.33333 6.00016C7.33333 5.63197 7.63181 5.3335 8 5.3335C8.36819 5.3335 8.66667 5.63197 8.66667 6.00016L8.66667 12.3907L10.8619 10.1954C11.1223 9.93508 11.5444 9.93508 11.8047 10.1954Z" fill="#0D1F2D"/>
</svg>
