<svg width="12" height="12" viewBox="0 0 12 12" fill="none" xmlns="http://www.w3.org/2000/svg">
<path fill-rule="evenodd" clip-rule="evenodd" d="M4.51968 2.27023C4.71592 2.07399 5.03408 2.07399 5.23032 2.27023L8.60532 5.64523C8.80156 5.84146 8.80156 6.15963 8.60532 6.35587L5.23032 9.73087C5.03408 9.92711 4.71592 9.92711 4.51968 9.73087C4.32344 9.53463 4.32344 9.21646 4.51968 9.02023L7.03686 6.50305H1.5C1.22247 6.50305 0.997498 6.27807 0.997498 6.00055C0.997498 5.72302 1.22247 5.49805 1.5 5.49805H7.03686L4.51968 2.98087C4.32344 2.78463 4.32344 2.46646 4.51968 2.27023ZM10.2525 6.75049C10.6667 6.75049 11.0025 6.4147 11.0025 6.00049C11.0025 5.58627 10.6667 5.25049 10.2525 5.25049C9.83828 5.25049 9.50249 5.58627 9.50249 6.00049C9.50249 6.4147 9.83828 6.75049 10.2525 6.75049Z" fill="white" fill-opacity="0.8"/>
</svg>
