<svg width="12" height="12" viewBox="0 0 12 12" fill="none" xmlns="http://www.w3.org/2000/svg">
<path fill-rule="evenodd" clip-rule="evenodd" d="M9.37183 2.62814C9.45388 2.71019 9.49997 2.82147 9.49997 2.9375L9.49997 4.6875C9.49997 4.92912 9.69584 5.125 9.93747 5.125C10.1791 5.125 10.375 4.92912 10.375 4.6875L10.375 2.9375C10.375 2.5894 10.2367 2.25556 9.99055 2.00942C9.74441 1.76328 9.41057 1.625 9.06247 1.625L2.93747 1.625C2.58937 1.625 2.25553 1.76328 2.00939 2.00942C1.76325 2.25556 1.62497 2.5894 1.62497 2.9375L1.62497 4.6875C1.62497 4.92912 1.82084 5.125 2.06247 5.125C2.30409 5.125 2.49997 4.92912 2.49997 4.6875L2.49997 2.9375C2.49997 2.82147 2.54606 2.71019 2.62811 2.62814C2.71016 2.54609 2.82144 2.5 2.93747 2.5L9.06247 2.5C9.1785 2.5 9.28978 2.54609 9.37183 2.62814ZM8.49684 8.05936C8.6677 7.8885 8.6677 7.61149 8.49684 7.44064C8.32599 7.26979 8.04898 7.26979 7.87813 7.44064L6.43748 8.88128L6.43748 4.6875C6.43748 4.44588 6.24161 4.25 5.99998 4.25C5.75836 4.25 5.56248 4.44588 5.56248 4.6875L5.56249 8.88128L4.12184 7.44064C3.95099 7.26979 3.67398 7.26979 3.50313 7.44064C3.33227 7.61149 3.33227 7.8885 3.50313 8.05936L5.69063 10.2469C5.86148 10.4177 6.13849 10.4177 6.30934 10.2469L8.49684 8.05936Z" fill="white" fill-opacity="0.8"/>
</svg>
