<svg width="16" height="16" viewBox="0 0 16 16" fill="none" xmlns="http://www.w3.org/2000/svg">
<path fill-rule="evenodd" clip-rule="evenodd" d="M13.3333 12.667C13.3333 12.8438 13.2631 13.0134 13.1381 13.1384C13.0131 13.2634 12.8435 13.3337 12.6667 13.3337L3.33334 13.3337C3.15653 13.3337 2.98696 13.2634 2.86193 13.1384C2.73691 13.0134 2.66667 12.8438 2.66667 12.667L2.66667 10.0003C2.66667 9.63214 2.36819 9.33366 2 9.33366C1.63181 9.33366 1.33334 9.63214 1.33334 10.0003L1.33334 12.667C1.33334 13.1974 1.54405 13.7061 1.91912 14.0812C2.2942 14.4563 2.8029 14.667 3.33334 14.667L12.6667 14.667C13.1971 14.667 13.7058 14.4563 14.0809 14.0812C14.456 13.7061 14.6667 13.1974 14.6667 12.667L14.6667 10.0003C14.6667 9.63214 14.3682 9.33366 14 9.33366C13.6318 9.33366 13.3333 9.63214 13.3333 10.0003L13.3333 12.667Z" fill="#0D1F2D"/>
<path fill-rule="evenodd" clip-rule="evenodd" d="M11.8047 5.80506C12.0651 5.54471 12.0651 5.1226 11.8047 4.86225L8.4714 1.52892C8.21105 1.26857 7.78894 1.26857 7.5286 1.52892L4.19526 4.86225C3.93491 5.1226 3.93491 5.54471 4.19526 5.80506C4.45561 6.06541 4.87772 6.06541 5.13807 5.80506L7.33333 3.6098L7.33333 10.0003C7.33333 10.3685 7.63181 10.667 8 10.667C8.36819 10.667 8.66667 10.3685 8.66667 10.0003L8.66667 3.6098L10.8619 5.80506C11.1223 6.06541 11.5444 6.06541 11.8047 5.80506Z" fill="#0D1F2D"/>
</svg>
